Input #0, mov,mp4,m4a,3gp,3g2,mj2, from '/home/hbattu/projects/huberman-gpt/huberman-audio/mp3/tmp8bde_97j.mp4':
  Metadata:
    major_brand     : dash
    minor_version   : 0
    compatible_brands: iso6mp41
    creation_time   : 2021-11-13T21:38:39.000000Z
  Duration: 02:26:06.65, start: 0.000000, bitrate: 129 kb/s
    Stream #0:0(eng): Audio: aac (LC) (mp4a / 0x6134706D), 44100 Hz, stereo, fltp, 0 kb/s (default)
    Metadata:
      creation_time   : 2021-11-13T21:38:39.000000Z
      handler_name    : ISO Media file produced by Google Inc.
Stream mapping:
  Stream #0:0 -> #0:0 (aac (native) -> mp3 (libmp3lame))
Press [q] to stop, [?] for help
[graph_0_in_0_0 @ 0x55f0d8378540] tb:1/44100 samplefmt:fltp samplerate:44100 chlayout:0x3
Output #0, mp3, to '../huberman-audio/mp3/9tRohh0gErM.mp3':
  Metadata:
    major_brand     : dash
    minor_version   : 0
    compatible_brands: iso6mp41
    TSSE            : Lavf58.29.100
    Stream #0:0(eng): Audio: mp3 (libmp3lame), 44100 Hz, stereo, fltp, delay 1105 (default)
    Metadata:
      creation_time   : 2021-11-13T21:38:39.000000Z
      handler_name    : ISO Media file produced by Google Inc.
      encoder         : Lavc58.54.100 libmp3lame
No more output streams to write to, finishing.
size=  136980kB time=02:26:06.66 bitrate= 128.0kbits/s speed=83.5x    
[AVIOContext @ 0x55f0d8339900] Statistics: 0 seeks, 210 writeouts
video:0kB audio:136980kB subtitle:0kB other streams:0kB global headers:0kB muxing overhead: 0.000247%
Input file #0 (/home/hbattu/projects/huberman-gpt/huberman-audio/mp3/tmp8bde_97j.mp4):
  Input stream #0:0 (audio): 377548 packets read (140266359 bytes); 377548 frames decoded (386609152 samples); 
  Total: 377548 packets (140266359 bytes) demuxed
Output file #0 (../huberman-audio/mp3/9tRohh0gErM.mp3):
  Output stream #0:0 (audio): 335599 frames encoded (386609152 samples); 335600 packets muxed (140267102 bytes); 
  Total: 335600 packets (140267102 bytes) muxed
[AVIOContext @ 0x55f0d836cf80] Statistics: 2 seeks, 537 writeouts
[AVIOContext @ 0x55f0d8342880] Statistics: 141879179 bytes read, 0 seeks
